{"title":"Snapper Hero Snapchat Session 7 (03/24/2015) (Unedited)","uid":11775266,"size":37596089,"categoryP":"video","categoryS":"handheld","magnet":"?xt=urn:btih:700b8b0611c5fa78769b84a0a29de3c7e086ec87&amp;dn=Snapper+Hero+Snapchat+Session+7+%2803%2F24%2F2015%29+%28Unedited%29&amp;tr=udp%3A%2F%2Ftracker.openbittorrent.com%3A80&amp;tr=udp%3A%2F%2Fopen.demonii.com%3A1337&amp;tr=udp%3A%2F%2Ftracker.coppersurfer.tk%3A6969&amp;tr=udp%3A%2F%2Fexodus.desync.com%3A6969","seeders":0,"leechers":1,"uploader":"geiszla","files":29,"time":1427258057,"description":"Episode 7 from Snapper Hero (03/24/2015)\n\nTech Specs:\nGeneral\nComplete name                  : C:[...]snapperhero-25-03-2015-06_24_01.mov\nFormat                         : MPEG-4\nFormat profile                 : Base Media / Version 2\nCodec ID                       : mp42\nFile size                      : 742 KiB\nDuration                       : 3s 600ms\nOverall bit rate               : 1 688 Kbps\nEncoded date                   : UTC 2015-03-24 19:59:02\nTagged date                    : UTC 2015-03-24 19:59:02\n\nVideo\nID                             : 2\nFormat                         : AVC\nFormat/Info                    : Advanced Video Codec\nFormat profile                 : &lt;a class=&quot;__cf_email__&quot; href=&quot;/cdn-cgi/l/email-protection&quot; data-cfemail=&quot;b3fbdad4dbf3ff809d83&quot;&gt;[email&amp;#160;protected]&lt;/a&gt;&lt;script cf-hash='f9e31' type=&quot;text/javascript&quot;&gt;\n/* &lt;![CDATA[ */!function(){try{var t=&quot;currentScript&quot;in document?document.currentScript:function(){for(var t=document.getElementsByTagName(&quot;script&quot;),e=t.length;e--;)if(t[e].getAttribute(&quot;cf-hash&quot;))return t[e]}();if(t&amp;&amp;t.previousSibling){var e,r,n,i,c=t.previousSibling,a=c.getAttribute(&quot;data-cfemail&quot;);if(a){for(e=&quot;&quot;,r=parseInt(a.substr(0,2),16),n=2;a.length-n;n+=2)i=parseInt(a.substr(n,2),16)^r,e+=String.fromCharCode(i);e=document.createTextNode(e),c.parentNode.replaceChild(e,c)}}}catch(u){}}();/* ]]&gt; */&lt;/script&gt;\nFormat settings, CABAC         : Yes\nFormat settings, ReFrames      : 2 frames\nCodec ID                       : avc1\nCodec ID/Info                  : Advanced Video Coding\nDuration                       : 3s 600ms\nBit rate                       : 1 421 Kbps\nWidth                          : 376 pixels\nHeight                         : 668 pixels\nDisplay aspect ratio           : 0.563\nFrame rate mode                : Constant\nFrame rate                     : 30.000 fps\nColor space                    : YUV\nChroma subsampling             : 4:2:0\nBit depth                      : 8 bits\nScan type                      : Progressive\nBits/(Pixel*Frame)             : 0.189\nStream size                    : 624 KiB (84%)\nTitle                          : Core Media Video\nEncoded date                   : UTC 2015-03-24 19:59:02\nTagged date                    : UTC 2015-03-24 19:59:02\nColor primaries                : BT.709\nTransfer characteristics       : BT.709\nMatrix coefficients            : BT.601\nColor range                    : Limited\n\nAudio\nID                             : 1\nFormat                         : AAC\nFormat/Info                    : Advanced Audio Codec\nFormat profile                 : LC\nCodec ID                       : 40\nDuration                       : 3s 590ms\nSource duration                : 3s 646ms\nBit rate mode                  : Constant\nBit rate                       : 256 Kbps\nChannel(s)                     : 2 channels\nChannel positions              : Front: L R\nSampling rate                  : 44.1 KHz\nCompression mode               : Lossy\nStream size                    : 113 KiB (15%)\nSource stream size             : 114 KiB (15%)\nTitle                          : Core Media Audio\nEncoded date                   : UTC 2015-03-24 19:59:02\nTagged date                    : UTC 2015-03-24 19:59:02\n\n\nNote: I just uploaded this torrent for those who are not able to watch it on snapchat. Please do it, if you can!","torrent":{"xt":"urn:btih:700b8b0611c5fa78769b84a0a29de3c7e086ec87","amp;dn":"Snapper+Hero+Snapchat+Session+7+%2803%2F24%2F2015%29+%28Unedited%29","amp;tr":["udp%3A%2F%2Ftracker.openbittorrent.com%3A80","udp%3A%2F%2Fopen.demonii.com%3A1337","udp%3A%2F%2Ftracker.coppersurfer.tk%3A6969","udp%3A%2F%2Fexodus.desync.com%3A6969"],"infoHash":"700b8b0611c5fa78769b84a0a29de3c7e086ec87","infoHashBuffer":{"type":"Buffer","data":[112,11,139,6,17,197,250,120,118,155,132,160,162,157,227,199,224,134,236,135]},"announce":[],"urlList":[]}}